#N canvas 128 87 1280 699 10;
#X obj 11 -17 cnv 15 667 140 empty empty Entradas_MIDI 20 12 0 14 -237244
-66577 0;
#N canvas 378 158 864 508 entradaNotasMidi 0;
#X obj 147 26 notein;
#X obj 147 75 pack 0 0 0;
#X obj 147 49 poly 6 6;
#X obj 111 180 route;
#X obj 153 181 route;
#X obj 196 181 route;
#X obj 238 181 route;
#X obj 282 181 route;
#X obj 323 181 route;
#X obj 147 107 list split 1;
#X obj 111 204 tgl 15 0 empty empty empty 17 7 0 10 -262144 -1 -1 0
127;
#X obj 153 202 tgl 15 0 empty empty empty 17 7 0 10 -262144 -1 -1 0
127;
#X obj 196 203 tgl 15 0 empty empty empty 17 7 0 10 -262144 -1 -1 0
127;
#X obj 238 204 tgl 15 0 empty empty empty 17 7 0 10 -262144 -1 -1 0
127;
#X obj 284 202 tgl 15 0 empty empty empty 17 7 0 10 -262144 -1 -1 0
127;
#X obj 325 204 tgl 15 0 empty empty empty 17 7 0 10 -262144 -1 -1 0
127;
#X obj 440 287 list;
#X obj 321 122 unpack 0 0 0 0 0 0;
#X obj 260 71 inlet;
#X obj 191 277 outlet;
#X obj 85 277 outlet;
#X obj 139 277 outlet;
#X obj 348 276 outlet;
#X obj 242 276 outlet;
#X obj 296 276 outlet;
#X connect 0 0 2 0;
#X connect 0 1 2 1;
#X connect 1 0 9 0;
#X connect 2 0 1 0;
#X connect 2 1 1 1;
#X connect 2 2 1 2;
#X connect 3 0 10 0;
#X connect 4 0 11 0;
#X connect 5 0 12 0;
#X connect 6 0 13 0;
#X connect 7 0 14 0;
#X connect 8 0 15 0;
#X connect 9 1 3 0;
#X connect 9 1 4 0;
#X connect 9 1 5 0;
#X connect 9 1 6 0;
#X connect 9 1 7 0;
#X connect 9 1 8 0;
#X connect 10 0 20 0;
#X connect 11 0 21 0;
#X connect 12 0 19 0;
#X connect 13 0 23 0;
#X connect 14 0 24 0;
#X connect 15 0 22 0;
#X connect 17 0 3 1;
#X connect 17 1 4 1;
#X connect 17 2 5 1;
#X connect 17 3 6 1;
#X connect 17 4 7 1;
#X connect 17 5 8 1;
#X connect 18 0 17 0;
#X coords 0 508 1 507 500 500 0;
#X restore 110 48 pd entradaNotasMidi;
#X msg 507 20 16 17 18;
#X obj 331 -9 loadbang;
#N canvas 431 300 450 300 entradaCCMidi 1;
#X obj 86 14 ctlin;
#X obj 87 68 pack;
#X obj 344 199 ctlout;
#X floatatom 385 175 5 0 0 0 - - -, f 5;
#X obj 409 216 bng 15 250 50 0 empty empty empty 17 7 0 10 -262144
-1 -1;
#X obj 169 152 route;
#X obj 71 153 route;
#X obj 121 152 route;
#X msg 195 85 16 17 18;
#X obj 194 109 unpack 0 0 0;
#X obj 195 61 loadbang;
#X floatatom 71 182 5 0 0 0 - - -, f 5;
#X floatatom 169 181 5 0 0 0 - - -, f 5;
#X floatatom 121 181 5 0 0 0 - - -, f 5;
#X floatatom 344 175 5 0 0 0 - - -, f 5;
#X obj 122 213 outlet;
#X obj 171 212 outlet;
#X obj 71 213 outlet;
#X obj 235 39 inlet;
#X obj 37 44 f;
#X obj 116 40 t b f;
#X connect 0 0 20 0;
#X connect 0 1 19 1;
#X connect 1 0 6 0;
#X connect 1 0 7 0;
#X connect 1 0 5 0;
#X connect 3 0 2 1;
#X connect 3 0 4 0;
#X connect 4 0 14 0;
#X connect 5 0 12 0;
#X connect 6 0 11 0;
#X connect 7 0 13 0;
#X connect 8 0 9 0;
#X connect 9 0 6 1;
#X connect 9 1 7 1;
#X connect 9 2 5 1;
#X connect 10 0 8 0;
#X connect 11 0 17 0;
#X connect 12 0 16 0;
#X connect 13 0 15 0;
#X connect 14 0 2 0;
#X connect 18 0 8 0;
#X connect 19 0 1 0;
#X connect 20 0 19 0;
#X connect 20 1 1 1;
#X restore 507 48 pd entradaCCMidi;
#X text 32 19 notas MIDI;
#X text 409 21 Controle MIDI;
#X obj 507 98 s knob1;
#X obj 553 98 s knob2;
#X obj 600 98 s ldr;
#X obj 682 -16 cnv 15 665 140 empty empty Mapeamento_MIDI 20 12 0 14
-195575 -66577 0;
#X obj 749 21 r knob1;
#X obj 849 22 r knob2;
#X obj 935 23 r ldr;
#X obj 851 58 * 1000;
#X obj 851 78 / 127;
#X obj 936 59 / 127;
#X obj 749 100 s volMaster;
#X obj 749 79 / 127;
#X obj 11 132 cnv 15 820 620 empty empty Sampler 20 12 0 24 -253677
-66577 0;
#X obj 544 174 r botao3;
#X obj 291 175 r botao2;
#X obj 39 173 r botao1;
#X obj 39 469 r botao4;
#X obj 291 470 r botao5;
#X obj 544 469 r botao6;
#N canvas 0 50 450 250 (subpatch) 0;
#X array sample4 364100 float 0;
#X coords 0 1 364099 -1 170 30 2 0 0;
#X restore 54 543 graph;
#N canvas 0 50 450 250 (subpatch) 0;
#X array sample5 60060 float 0;
#X coords 0 1 60059 -1 170 30 1 0 0;
#X restore 313 545 graph;
#N canvas 0 50 450 250 (subpatch) 0;
#X array sample6 36998 float 0;
#X coords 0 1 36997 -1 170 30 1 0 0;
#X restore 557 547 graph;
#N canvas 0 50 450 250 (subpatch) 0;
#X array sample2 44544 float 0;
#X coords 0 1 44543 -1 170 30 1 0 0;
#X restore 307 248 graph;
#N canvas 0 50 450 250 (subpatch) 0;
#X array sample3 39808 float 0;
#X coords 0 1 39807 -1 170 30 1 0 0;
#X restore 559 248 graph;
#X obj 44 706 *~;
#X obj 78 704 hsl 128 17 0 1 0 1 empty empty empty -2 -8 0 10 -262144
-1 -1 12700 1;
#X obj 299 706 *~;
#X obj 334 706 hsl 128 17 0 1 0 1 empty empty empty -2 -8 0 10 -262144
-1 -1 8200 1;
#X obj 552 705 *~;
#X obj 587 705 hsl 128 17 0 1 0 1 empty empty empty -2 -8 0 10 -262144
-1 -1 12700 1;
#X obj 46 413 *~;
#X obj 81 413 hsl 128 17 0 1 0 1 empty empty empty -2 -8 0 10 -262144
-1 -1 12700 1;
#X obj 299 413 *~;
#X obj 334 413 hsl 128 17 0 1 0 1 empty empty empty -2 -8 0 10 -262144
-1 -1 12700 1;
#X obj 551 415 *~;
#X obj 586 415 hsl 128 17 0 1 0 1 empty empty empty -2 -8 0 10 -262144
-1 -1 12700 1;
#X obj 839 132 cnv 15 300 620 empty empty Efeitos_(Send) 20 12 0 14
-240551 -66577 0;
#X obj 1073 672 s~ master;
#X obj 938 202 r delTime;
#X obj 1001 202 r delFeedback;
#X obj 1146 132 cnv 15 200 620 empty empty Master 20 12 0 14 -223918
-66577 0;
#N canvas 0 23 450 361 master 0;
#X obj 98 104 cnv 15 100 60 empty empty Master 20 12 0 14 -262144 -66577
0;
#X obj 104 413 *~;
#X obj 122 162 vsl 30 128 0 1.2 0 1 empty empty Volume 0 -9 0 10 -262144
-1 -1 11400 1;
#X floatatom 122 302 5 0 0 0 - - -, f 5;
#X obj 104 436 outlet~;
#X obj 101 51 inlet~;
#X obj 231 71 inlet;
#X obj 304 304 metro 100;
#X obj 304 304 metro 100;
#X obj 302 282 tgl 15 0 empty empty empty 17 7 0 10 -262144 -1 -1 1
1;
#X text 221 308 visualizar;
#X obj 278 335 tabwrite~ masterout;
#X obj 296 219 loadbang;
#X msg 300 245 1;
#X connect 1 0 4 0;
#X connect 1 0 11 0;
#X connect 2 0 3 0;
#X connect 3 0 1 1;
#X connect 5 0 1 0;
#X connect 6 0 2 0;
#X connect 7 0 11 0;
#X connect 9 0 7 0;
#X connect 12 0 13 0;
#X connect 13 0 9 0;
#X coords 0 -1 1 1 100 250 1 100 100;
#X restore 1187 242 pd master;
#X obj 1179 525 dac~;
#X obj 1247 213 r volMaster;
#X obj 617 137 bng 15 250 50 0 empty empty empty 17 7 0 10 -262144
-1 -1;
#N canvas 128 266 686 394 carregar_samples_padroes 0;
#X msg 227 166 read -resize ./samples/sample2.wav sample2;
#X msg 238 138 read -resize ./samples/sample1.wav sample1;
#X msg 213 195 read -resize ./samples/sample3.wav sample3;
#X msg 199 223 read -resize ./samples/sample4.wav sample4;
#X msg 183 248 read -resize ./samples/sample5.wav sample5;
#X msg 164 275 read -resize ./samples/sample6.wav sample6;
#X obj 237 107 bng 15 250 50 0 empty empty empty 17 7 0 10 -262144
-1 -1;
#X obj 235 75 loadbang;
#X obj 208 325 soundfiler;
#X obj 394 95 inlet;
#X obj 383 338 outlet;
#X obj 339 336 bng 15 250 50 0 empty empty empty 17 7 0 10 -262144
-1 -1;
#X obj 370 311 del 500;
#X msg 572 262 \; pd dsp 1;
#X connect 0 0 8 0;
#X connect 1 0 8 0;
#X connect 2 0 8 0;
#X connect 3 0 8 0;
#X connect 4 0 8 0;
#X connect 5 0 8 0;
#X connect 6 0 1 0;
#X connect 6 0 0 0;
#X connect 6 0 2 0;
#X connect 6 0 3 0;
#X connect 6 0 4 0;
#X connect 6 0 5 0;
#X connect 6 0 12 0;
#X connect 7 0 6 0;
#X connect 9 0 6 0;
#X connect 11 0 10 0;
#X connect 12 0 11 0;
#X connect 12 0 13 0;
#X restore 639 139 pd carregar_samples_padroes;
#X obj 206 724 s~ s4;
#X obj 473 723 s~ s5;
#X obj 727 722 s~ s6;
#X obj 214 431 s~ s1;
#X obj 462 430 s~ s2;
#X obj 734 432 s~ s3;
#X obj 544 439 s~ m3;
#X obj 292 437 s~ m2;
#X obj 40 437 s~ m1;
#X obj 37 727 s~ m4;
#X obj 290 729 s~ m5;
#X obj 544 726 s~ m6;
#N canvas 0 22 450 278 (subpatch) 0;
#X array masterout 100 float 1;
#A 0 0 0 0 0 0 0 0 0 0 0 0 0 0 0 0 0 0 0 0 0 0 0 0 0 0 0 0 0 0 0 0
0 0 0 0 0 0 0 0 0 0 0 0 0 0 0 0 0 0 0 0 0 0 0 0 0 0 0 0 0 0 0 0 0 0
0 0 0 0 0 0 0 0 0 0 0 0 0 0 0 0 0 0 0 0 0 0 0 0 0 0 0 0 0 0 0 0 0 0
0;
#X coords 0 1 99 -1 200 140 1;
#X restore 1146 610 graph;
#N canvas 139 24 950 647 sampler 0;
#X obj 365 550 *~;
#X obj 106 104 tgl 30 0 empty empty empty 17 7 0 10 -262144 -1 -1 0
127;
#X obj 95 39 inlet;
#X obj 306 149 vsl 20 128 0 1 0 1 empty empty vol. 0 -9 0 10 -262144
-1 -1 12700 1;
#X obj 115 208 vradio 30 1 1 3 empty empty Modos_de_Funcionamento 0
-12 0 10 -262144 -1 -1 1;
#X text 158 212 Disparo;
#X obj 89 700 *~;
#X obj 679 728 *~;
#X obj 363 652 *~;
#X obj 381 627 tgl 15 0 empty empty empty 17 7 0 10 -262144 -1 -1 1
1;
#X obj 697 704 tgl 15 0 empty empty empty 17 7 0 10 -262144 -1 -1 0
1;
#X obj 107 675 tgl 15 0 empty empty empty 17 7 0 10 -262144 -1 -1 0
1;
#X obj 718 431 select 2;
#X msg 413 600 0;
#X msg 381 600 1;
#X msg 140 646 0;
#X msg 107 646 1;
#X msg 749 457 0;
#X msg 718 456 1;
#X obj 361 739 *~;
#X obj 361 761 outlet~;
#X obj 679 527 bng 15 250 50 0 empty empty empty 17 7 0 10 -262144
-1 -1;
#X obj 679 503 spigot;
#X obj 718 483 tgl 15 0 empty empty empty 17 7 0 10 -262144 -1 -1 0
1;
#X obj 679 620 *~;
#X obj 697 650 select 2;
#X msg 729 678 0;
#X msg 697 678 1;
#X obj 634 440 t b b;
#X obj 107 622 select 0;
#X obj 381 574 select 1;
#X obj 444 105 soundfiler;
#X obj 444 53 openpanel;
#X msg 444 79 read -resize \$1 sample1;
#X obj 269 104 bng 15 250 50 0 empty empty carregar 17 7 0 10 -262144
-1 -1;
#X obj 88 525 spigot;
#X obj 126 502 tgl 15 0 empty empty empty 17 7 0 10 -262144 -1 -1 0
1;
#X obj 126 458 select 0;
#X msg 126 479 1;
#X msg 159 479 0;
#X obj 365 483 tabplay~;
#X obj 88 581 tabplay~;
#X obj 679 551 tabplay~;
#X msg 500 350 set sample1;
#X obj 500 322 loadbang;
#X floatatom 306 285 5 0 0 0 - - -, f 5;
#X msg 426 159 \; sample1 normalize;
#X obj 269 122 bng 15 250 50 0 empty empty normalizar 17 7 0 10 -262144
-1 -1;
#X obj 14 307 select 0;
#X obj 15 331 bng 15 250 50 0 empty empty empty 17 7 0 10 -262144 -1
-1;
#X obj 68 331 bng 15 250 50 0 empty empty empty 17 7 0 10 -262144 -1
-1;
#X obj 697 593 adsr 1 1 0 100 100;
#X text 158 245 Gate;
#X text 158 277 Gate em Loop;
#X obj 382 520 adsr 1 1 0 100 100;
#X connect 0 0 8 0;
#X connect 1 0 48 0;
#X connect 1 0 51 0;
#X connect 1 0 54 0;
#X connect 2 0 1 0;
#X connect 3 0 19 1;
#X connect 3 0 45 0;
#X connect 4 0 12 0;
#X connect 4 0 25 0;
#X connect 4 0 29 0;
#X connect 4 0 30 0;
#X connect 4 0 37 0;
#X connect 6 0 19 0;
#X connect 7 0 19 0;
#X connect 8 0 19 0;
#X connect 9 0 8 1;
#X connect 10 0 7 1;
#X connect 11 0 6 1;
#X connect 12 0 18 0;
#X connect 12 1 17 0;
#X connect 13 0 9 0;
#X connect 14 0 9 0;
#X connect 15 0 11 0;
#X connect 16 0 11 0;
#X connect 17 0 23 0;
#X connect 18 0 23 0;
#X connect 19 0 20 0;
#X connect 21 0 42 0;
#X connect 22 0 21 0;
#X connect 23 0 22 1;
#X connect 24 0 7 0;
#X connect 25 0 27 0;
#X connect 25 1 26 0;
#X connect 26 0 10 0;
#X connect 27 0 10 0;
#X connect 28 0 22 0;
#X connect 28 1 18 0;
#X connect 29 0 16 0;
#X connect 29 1 15 0;
#X connect 30 0 14 0;
#X connect 30 1 13 0;
#X connect 32 0 33 0;
#X connect 33 0 31 0;
#X connect 34 0 32 0;
#X connect 35 0 41 0;
#X connect 36 0 35 1;
#X connect 37 0 38 0;
#X connect 37 1 39 0;
#X connect 38 0 36 0;
#X connect 39 0 36 0;
#X connect 40 0 0 0;
#X connect 41 0 6 0;
#X connect 42 0 24 0;
#X connect 42 1 22 0;
#X connect 43 0 41 0;
#X connect 43 0 40 0;
#X connect 43 0 42 0;
#X connect 44 0 43 0;
#X connect 47 0 46 0;
#X connect 48 0 49 0;
#X connect 48 1 50 0;
#X connect 49 0 17 0;
#X connect 50 0 40 0;
#X connect 50 0 35 0;
#X connect 50 0 28 0;
#X connect 51 0 24 1;
#X connect 54 0 0 1;
#X coords 0 -1 1 1 250 210 2 100 100;
#X restore 40 196 pd sampler;
#N canvas 0 50 450 250 (subpatch) 0;
#X array sample1 60378 float 0;
#X coords 0 1 60377 -1 170 30 1 0 0;
#X restore 59 248 graph;
#N canvas 147 152 950 647 sampler 0;
#X obj 160 361 bng 15 250 50 0 empty empty empty 17 7 0 10 -262144
-1 -1;
#X obj 365 550 *~;
#X obj 106 104 tgl 30 0 empty empty empty 17 7 0 10 -262144 -1 -1 0
127;
#X obj 95 39 inlet;
#X obj 306 149 vsl 20 128 0 1 0 1 empty empty vol. 0 -9 0 10 -262144
-1 -1 12700 1;
#X obj 115 208 vradio 30 1 1 3 empty empty Modos_de_Funcionamento 0
-12 0 10 -262144 -1 -1 1;
#X text 158 212 Disparo;
#X obj 89 700 *~;
#X obj 679 728 *~;
#X obj 363 652 *~;
#X obj 381 627 tgl 15 0 empty empty empty 17 7 0 10 -262144 -1 -1 1
1;
#X obj 697 704 tgl 15 0 empty empty empty 17 7 0 10 -262144 -1 -1 0
1;
#X obj 107 675 tgl 15 0 empty empty empty 17 7 0 10 -262144 -1 -1 0
1;
#X obj 718 431 select 2;
#X msg 413 600 0;
#X msg 381 600 1;
#X msg 140 646 0;
#X msg 107 646 1;
#X msg 749 457 0;
#X msg 718 456 1;
#X obj 361 739 *~;
#X obj 361 761 outlet~;
#X obj 679 527 bng 15 250 50 0 empty empty empty 17 7 0 10 -262144
-1 -1;
#X obj 679 503 spigot;
#X obj 718 483 tgl 15 0 empty empty empty 17 7 0 10 -262144 -1 -1 0
1;
#X obj 679 620 *~;
#X obj 697 650 select 2;
#X msg 729 678 0;
#X msg 697 678 1;
#X obj 634 440 t b b;
#X obj 107 622 select 0;
#X obj 381 574 select 1;
#X obj 444 105 soundfiler;
#X obj 444 53 openpanel;
#X obj 269 105 bng 15 250 50 0 empty empty carregar 17 7 0 10 -262144
-1 -1;
#X obj 88 525 spigot;
#X obj 126 502 tgl 15 0 empty empty empty 17 7 0 10 -262144 -1 -1 0
1;
#X obj 126 458 select 0;
#X msg 126 479 1;
#X msg 159 479 0;
#X obj 365 483 tabplay~;
#X obj 88 581 tabplay~;
#X obj 679 551 tabplay~;
#X obj 500 322 loadbang;
#X floatatom 306 285 5 0 0 0 - - -, f 5;
#X msg 444 79 read -resize \$1 sample2;
#X msg 500 350 set sample2;
#X obj 269 122 bng 15 250 50 0 empty empty normalizar 17 7 0 10 -262144
-1 -1;
#X msg 426 159 \; sample2 normalize;
#X obj 96 363 bng 15 250 50 0 empty empty empty 17 7 0 10 -262144 -1
-1;
#X obj 106 327 select 0;
#X obj 383 521 adsr 1 1 0 100 100;
#X obj 697 593 adsr 1 1 0 100 100;
#X text 158 245 Gate;
#X text 158 277 Gate em Loop;
#X connect 0 0 35 0;
#X connect 0 0 40 0;
#X connect 0 0 29 0;
#X connect 1 0 9 0;
#X connect 2 0 50 0;
#X connect 2 0 51 0;
#X connect 2 0 52 0;
#X connect 3 0 2 0;
#X connect 4 0 20 1;
#X connect 4 0 44 0;
#X connect 5 0 13 0;
#X connect 5 0 26 0;
#X connect 5 0 30 0;
#X connect 5 0 31 0;
#X connect 5 0 37 0;
#X connect 7 0 20 0;
#X connect 8 0 20 0;
#X connect 9 0 20 0;
#X connect 10 0 9 1;
#X connect 11 0 8 1;
#X connect 12 0 7 1;
#X connect 13 0 19 0;
#X connect 13 1 18 0;
#X connect 14 0 10 0;
#X connect 15 0 10 0;
#X connect 16 0 12 0;
#X connect 17 0 12 0;
#X connect 18 0 24 0;
#X connect 19 0 24 0;
#X connect 20 0 21 0;
#X connect 22 0 42 0;
#X connect 23 0 22 0;
#X connect 24 0 23 1;
#X connect 25 0 8 0;
#X connect 26 0 28 0;
#X connect 26 1 27 0;
#X connect 27 0 11 0;
#X connect 28 0 11 0;
#X connect 29 0 23 0;
#X connect 29 1 19 0;
#X connect 30 0 17 0;
#X connect 30 1 16 0;
#X connect 31 0 15 0;
#X connect 31 1 14 0;
#X connect 33 0 45 0;
#X connect 34 0 33 0;
#X connect 35 0 41 0;
#X connect 36 0 35 1;
#X connect 37 0 38 0;
#X connect 37 1 39 0;
#X connect 38 0 36 0;
#X connect 39 0 36 0;
#X connect 40 0 1 0;
#X connect 41 0 7 0;
#X connect 42 0 25 0;
#X connect 42 1 23 0;
#X connect 43 0 46 0;
#X connect 45 0 32 0;
#X connect 46 0 41 0;
#X connect 46 0 40 0;
#X connect 46 0 42 0;
#X connect 47 0 48 0;
#X connect 49 0 18 0;
#X connect 50 0 49 0;
#X connect 50 1 0 0;
#X connect 51 0 1 1;
#X connect 52 0 25 1;
#X coords 0 -1 1 1 250 210 2 100 100;
#X restore 292 198 pd sampler;
#N canvas 147 152 950 647 sampler 0;
#X obj 145 362 bng 15 250 50 0 empty empty empty 17 7 0 10 -262144
-1 -1;
#X obj 365 550 *~;
#X obj 106 104 tgl 30 0 empty empty empty 17 7 0 10 -262144 -1 -1 0
127;
#X obj 95 39 inlet;
#X obj 306 149 vsl 20 128 0 1 0 1 empty empty vol. 0 -9 0 10 -262144
-1 -1 12700 1;
#X obj 115 208 vradio 30 1 1 3 empty empty Modos_de_Funcionamento 0
-12 0 10 -262144 -1 -1 0;
#X text 158 212 Disparo;
#X obj 89 700 *~;
#X obj 679 728 *~;
#X obj 363 652 *~;
#X obj 381 627 tgl 15 0 empty empty empty 17 7 0 10 -262144 -1 -1 0
1;
#X obj 697 704 tgl 15 0 empty empty empty 17 7 0 10 -262144 -1 -1 0
1;
#X obj 107 675 tgl 15 0 empty empty empty 17 7 0 10 -262144 -1 -1 1
1;
#X obj 718 431 select 2;
#X msg 413 600 0;
#X msg 381 600 1;
#X msg 140 646 0;
#X msg 107 646 1;
#X msg 749 457 0;
#X msg 718 456 1;
#X obj 361 739 *~;
#X obj 361 761 outlet~;
#X obj 679 527 bng 15 250 50 0 empty empty empty 17 7 0 10 -262144
-1 -1;
#X obj 679 503 spigot;
#X obj 718 483 tgl 15 0 empty empty empty 17 7 0 10 -262144 -1 -1 0
1;
#X obj 679 620 *~;
#X obj 697 650 select 2;
#X msg 729 678 0;
#X msg 697 678 1;
#X obj 634 440 t b b;
#X obj 107 622 select 0;
#X obj 381 574 select 1;
#X obj 444 105 soundfiler;
#X obj 444 53 openpanel;
#X obj 269 104 bng 15 250 50 0 empty empty carregar 17 7 0 10 -262144
-1 -1;
#X obj 88 525 spigot;
#X obj 126 502 tgl 15 0 empty empty empty 17 7 0 10 -262144 -1 -1 1
1;
#X obj 126 458 select 0;
#X msg 126 479 1;
#X msg 159 479 0;
#X obj 365 483 tabplay~;
#X obj 88 581 tabplay~;
#X obj 679 551 tabplay~;
#X obj 500 322 loadbang;
#X floatatom 306 285 5 0 0 0 - - -, f 5;
#X msg 444 79 read -resize \$1 sample3;
#X msg 500 350 set sample3;
#X obj 269 122 bng 15 250 50 0 empty empty normalizar 17 7 0 10 -262144
-1 -1;
#X msg 426 159 \; sample3 normalize;
#X obj 88 361 bng 15 250 50 0 empty empty empty 17 7 0 10 -262144 -1
-1;
#X obj 106 327 select 0;
#X obj 383 521 adsr 1 1 0 100 100;
#X obj 697 593 adsr 1 1 0 100 100;
#X text 158 245 Gate;
#X text 158 277 Gate em Loop;
#X connect 0 0 35 0;
#X connect 0 0 40 0;
#X connect 0 0 29 0;
#X connect 1 0 9 0;
#X connect 2 0 50 0;
#X connect 2 0 51 0;
#X connect 2 0 52 0;
#X connect 3 0 2 0;
#X connect 4 0 20 1;
#X connect 4 0 44 0;
#X connect 5 0 13 0;
#X connect 5 0 26 0;
#X connect 5 0 30 0;
#X connect 5 0 31 0;
#X connect 5 0 37 0;
#X connect 7 0 20 0;
#X connect 8 0 20 0;
#X connect 9 0 20 0;
#X connect 10 0 9 1;
#X connect 11 0 8 1;
#X connect 12 0 7 1;
#X connect 13 0 19 0;
#X connect 13 1 18 0;
#X connect 14 0 10 0;
#X connect 15 0 10 0;
#X connect 16 0 12 0;
#X connect 17 0 12 0;
#X connect 18 0 24 0;
#X connect 19 0 24 0;
#X connect 20 0 21 0;
#X connect 22 0 42 0;
#X connect 23 0 22 0;
#X connect 24 0 23 1;
#X connect 25 0 8 0;
#X connect 26 0 28 0;
#X connect 26 1 27 0;
#X connect 27 0 11 0;
#X connect 28 0 11 0;
#X connect 29 0 23 0;
#X connect 29 1 19 0;
#X connect 30 0 17 0;
#X connect 30 1 16 0;
#X connect 31 0 15 0;
#X connect 31 1 14 0;
#X connect 33 0 45 0;
#X connect 34 0 33 0;
#X connect 35 0 41 0;
#X connect 36 0 35 1;
#X connect 37 0 38 0;
#X connect 37 1 39 0;
#X connect 38 0 36 0;
#X connect 39 0 36 0;
#X connect 40 0 1 0;
#X connect 41 0 7 0;
#X connect 42 0 25 0;
#X connect 42 1 23 0;
#X connect 43 0 46 0;
#X connect 45 0 32 0;
#X connect 46 0 41 0;
#X connect 46 0 40 0;
#X connect 46 0 42 0;
#X connect 47 0 48 0;
#X connect 49 0 18 0;
#X connect 50 0 49 0;
#X connect 50 1 0 0;
#X connect 51 0 1 1;
#X connect 52 0 25 1;
#X coords 0 -1 1 1 250 210 2 100 100;
#X restore 547 198 pd sampler;
#N canvas 147 152 950 647 sampler 0;
#X obj 16 385 bng 15 250 50 0 empty empty empty 17 7 0 10 -262144 -1
-1;
#X obj 365 550 *~;
#X obj 106 104 tgl 30 0 empty empty empty 17 7 0 10 -262144 -1 -1 0
127;
#X obj 95 39 inlet;
#X obj 306 149 vsl 20 128 0 1 0 1 empty empty vol. 0 -9 0 10 -262144
-1 -1 12700 1;
#X obj 115 208 vradio 30 1 1 3 empty empty Modos_de_Funcionamento 0
-12 0 10 -262144 -1 -1 1;
#X text 158 212 Disparo;
#X obj 89 700 *~;
#X obj 679 728 *~;
#X obj 363 652 *~;
#X obj 381 627 tgl 15 0 empty empty empty 17 7 0 10 -262144 -1 -1 1
1;
#X obj 697 704 tgl 15 0 empty empty empty 17 7 0 10 -262144 -1 -1 0
1;
#X obj 107 675 tgl 15 0 empty empty empty 17 7 0 10 -262144 -1 -1 0
1;
#X obj 718 431 select 2;
#X msg 413 600 0;
#X msg 381 600 1;
#X msg 140 646 0;
#X msg 107 646 1;
#X msg 749 457 0;
#X msg 718 456 1;
#X obj 361 739 *~;
#X obj 361 761 outlet~;
#X obj 679 527 bng 15 250 50 0 empty empty empty 17 7 0 10 -262144
-1 -1;
#X obj 679 503 spigot;
#X obj 718 483 tgl 15 0 empty empty empty 17 7 0 10 -262144 -1 -1 0
1;
#X obj 679 620 *~;
#X obj 697 650 select 2;
#X msg 729 678 0;
#X msg 697 678 1;
#X obj 634 440 t b b;
#X obj 107 622 select 0;
#X obj 381 574 select 1;
#X obj 444 105 soundfiler;
#X obj 444 53 openpanel;
#X obj 269 104 bng 15 250 50 0 empty empty carregar 17 7 0 10 -262144
-1 -1;
#X obj 88 525 spigot;
#X obj 126 502 tgl 15 0 empty empty empty 17 7 0 10 -262144 -1 -1 0
1;
#X obj 126 458 select 0;
#X msg 126 479 1;
#X msg 159 479 0;
#X obj 365 483 tabplay~;
#X obj 88 581 tabplay~;
#X obj 679 551 tabplay~;
#X obj 500 322 loadbang;
#X floatatom 306 285 5 0 0 0 - - -, f 5;
#X msg 444 79 read -resize \$1 sample4;
#X msg 501 350 set sample4;
#X obj 269 122 bng 15 250 50 0 empty empty normalizar 17 7 0 10 -262144
-1 -1;
#X msg 426 159 \; sample4 normalize;
#X obj 75 359 bng 15 250 50 0 empty empty empty 17 7 0 10 -262144 -1
-1;
#X obj 20 329 select 0;
#X obj 384 520 adsr 1 1 0 100 100;
#X obj 697 593 adsr 1 1 0 100 100;
#X text 158 245 Gate;
#X text 158 277 Gate em Loop;
#X connect 0 0 35 0;
#X connect 0 0 40 0;
#X connect 0 0 29 0;
#X connect 1 0 9 0;
#X connect 2 0 50 0;
#X connect 2 0 51 0;
#X connect 2 0 52 0;
#X connect 3 0 2 0;
#X connect 4 0 20 1;
#X connect 4 0 44 0;
#X connect 5 0 13 0;
#X connect 5 0 26 0;
#X connect 5 0 30 0;
#X connect 5 0 31 0;
#X connect 5 0 37 0;
#X connect 7 0 20 0;
#X connect 8 0 20 0;
#X connect 9 0 20 0;
#X connect 10 0 9 1;
#X connect 11 0 8 1;
#X connect 12 0 7 1;
#X connect 13 0 19 0;
#X connect 13 1 18 0;
#X connect 14 0 10 0;
#X connect 15 0 10 0;
#X connect 16 0 12 0;
#X connect 17 0 12 0;
#X connect 18 0 24 0;
#X connect 19 0 24 0;
#X connect 20 0 21 0;
#X connect 22 0 42 0;
#X connect 23 0 22 0;
#X connect 24 0 23 1;
#X connect 25 0 8 0;
#X connect 26 0 28 0;
#X connect 26 1 27 0;
#X connect 27 0 11 0;
#X connect 28 0 11 0;
#X connect 29 0 23 0;
#X connect 29 1 19 0;
#X connect 30 0 17 0;
#X connect 30 1 16 0;
#X connect 31 0 15 0;
#X connect 31 1 14 0;
#X connect 33 0 45 0;
#X connect 34 0 33 0;
#X connect 35 0 41 0;
#X connect 36 0 35 1;
#X connect 37 0 38 0;
#X connect 37 1 39 0;
#X connect 38 0 36 0;
#X connect 39 0 36 0;
#X connect 40 0 1 0;
#X connect 41 0 7 0;
#X connect 42 0 25 0;
#X connect 42 1 23 0;
#X connect 43 0 46 0;
#X connect 45 0 32 0;
#X connect 46 0 41 0;
#X connect 46 0 40 0;
#X connect 46 0 42 0;
#X connect 47 0 48 0;
#X connect 49 0 18 0;
#X connect 50 0 49 0;
#X connect 50 1 0 0;
#X connect 51 0 1 1;
#X connect 52 0 25 1;
#X coords 0 -1 1 1 250 210 2 100 100;
#X restore 39 493 pd sampler;
#N canvas 147 152 950 647 sampler 0;
#X obj 32 355 bng 15 250 50 0 empty empty empty 17 7 0 10 -262144 -1
-1;
#X obj 365 550 *~;
#X obj 106 104 tgl 30 0 empty empty empty 17 7 0 10 -262144 -1 -1 0
127;
#X obj 95 39 inlet;
#X obj 306 149 vsl 20 128 0 1 0 1 empty empty vol. 0 -9 0 10 -262144
-1 -1 12700 1;
#X obj 115 208 vradio 30 1 1 3 empty empty Modos_de_Funcionamento 0
-12 0 10 -262144 -1 -1 1;
#X text 158 212 Disparo;
#X obj 89 700 *~;
#X obj 679 728 *~;
#X obj 363 652 *~;
#X obj 381 627 tgl 15 0 empty empty empty 17 7 0 10 -262144 -1 -1 1
1;
#X obj 697 704 tgl 15 0 empty empty empty 17 7 0 10 -262144 -1 -1 0
1;
#X obj 107 675 tgl 15 0 empty empty empty 17 7 0 10 -262144 -1 -1 0
1;
#X obj 718 431 select 2;
#X msg 413 600 0;
#X msg 381 600 1;
#X msg 140 646 0;
#X msg 107 646 1;
#X msg 749 457 0;
#X msg 718 456 1;
#X obj 361 739 *~;
#X obj 361 761 outlet~;
#X obj 679 527 bng 15 250 50 0 empty empty empty 17 7 0 10 -262144
-1 -1;
#X obj 679 503 spigot;
#X obj 718 483 tgl 15 0 empty empty empty 17 7 0 10 -262144 -1 -1 0
1;
#X obj 679 620 *~;
#X obj 697 650 select 2;
#X msg 729 678 0;
#X msg 697 678 1;
#X obj 634 440 t b b;
#X obj 107 622 select 0;
#X obj 381 574 select 1;
#X obj 444 105 soundfiler;
#X obj 444 53 openpanel;
#X obj 269 105 bng 15 250 50 0 empty empty carregar 17 7 0 10 -262144
-1 -1;
#X obj 88 525 spigot;
#X obj 126 502 tgl 15 0 empty empty empty 17 7 0 10 -262144 -1 -1 0
1;
#X obj 126 458 select 0;
#X msg 126 479 1;
#X msg 159 479 0;
#X obj 365 483 tabplay~;
#X obj 88 581 tabplay~;
#X obj 679 551 tabplay~;
#X obj 500 322 loadbang;
#X floatatom 306 285 5 0 0 0 - - -, f 5;
#X msg 501 350 set sample5;
#X msg 444 79 read -resize \$1 sample5;
#X obj 269 122 bng 15 250 50 0 empty empty normalizar 17 7 0 10 -262144
-1 -1;
#X msg 427 159 \; sample5 normalize;
#X obj 19 315 select 0;
#X obj 79 355 bng 15 250 50 0 empty empty empty 17 7 0 10 -262144 -1
-1;
#X obj 383 521 adsr 1 1 0 100 100;
#X obj 697 593 adsr 1 1 0 100 100;
#X text 158 245 Gate;
#X text 158 277 Gate em Loop;
#X connect 0 0 35 0;
#X connect 0 0 40 0;
#X connect 0 0 29 0;
#X connect 1 0 9 0;
#X connect 2 0 49 0;
#X connect 2 0 51 0;
#X connect 2 0 52 0;
#X connect 3 0 2 0;
#X connect 4 0 20 1;
#X connect 4 0 44 0;
#X connect 5 0 13 0;
#X connect 5 0 26 0;
#X connect 5 0 30 0;
#X connect 5 0 31 0;
#X connect 5 0 37 0;
#X connect 7 0 20 0;
#X connect 8 0 20 0;
#X connect 9 0 20 0;
#X connect 10 0 9 1;
#X connect 11 0 8 1;
#X connect 12 0 7 1;
#X connect 13 0 19 0;
#X connect 13 1 18 0;
#X connect 14 0 10 0;
#X connect 15 0 10 0;
#X connect 16 0 12 0;
#X connect 17 0 12 0;
#X connect 18 0 24 0;
#X connect 19 0 24 0;
#X connect 20 0 21 0;
#X connect 22 0 42 0;
#X connect 23 0 22 0;
#X connect 24 0 23 1;
#X connect 25 0 8 0;
#X connect 26 0 28 0;
#X connect 26 1 27 0;
#X connect 27 0 11 0;
#X connect 28 0 11 0;
#X connect 29 0 23 0;
#X connect 29 1 19 0;
#X connect 30 0 17 0;
#X connect 30 1 16 0;
#X connect 31 0 15 0;
#X connect 31 1 14 0;
#X connect 33 0 46 0;
#X connect 34 0 33 0;
#X connect 35 0 41 0;
#X connect 36 0 35 1;
#X connect 37 0 38 0;
#X connect 37 1 39 0;
#X connect 38 0 36 0;
#X connect 39 0 36 0;
#X connect 40 0 1 0;
#X connect 41 0 7 0;
#X connect 42 0 25 0;
#X connect 42 1 23 0;
#X connect 43 0 45 0;
#X connect 45 0 41 0;
#X connect 45 0 40 0;
#X connect 45 0 42 0;
#X connect 46 0 32 0;
#X connect 47 0 48 0;
#X connect 49 0 50 0;
#X connect 49 1 0 0;
#X connect 50 0 18 0;
#X connect 51 0 1 1;
#X connect 52 0 25 1;
#X coords 0 -1 1 1 250 210 2 100 100;
#X restore 291 493 pd sampler;
#N canvas 147 152 950 647 sampler 0;
#X obj 21 365 bng 15 250 50 0 empty empty empty 17 7 0 10 -262144 -1
-1;
#X obj 365 550 *~;
#X obj 106 104 tgl 30 0 empty empty empty 17 7 0 10 -262144 -1 -1 0
127;
#X obj 95 39 inlet;
#X obj 306 149 vsl 20 128 0 1 0 1 empty empty vol. 0 -9 0 10 -262144
-1 -1 12700 1;
#X obj 115 208 vradio 30 1 1 3 empty empty Modos_de_Funcionamento 0
-12 0 10 -262144 -1 -1 1;
#X text 158 212 Disparo;
#X obj 89 700 *~;
#X obj 679 728 *~;
#X obj 363 652 *~;
#X obj 381 627 tgl 15 0 empty empty empty 17 7 0 10 -262144 -1 -1 1
1;
#X obj 697 704 tgl 15 0 empty empty empty 17 7 0 10 -262144 -1 -1 0
1;
#X obj 107 675 tgl 15 0 empty empty empty 17 7 0 10 -262144 -1 -1 0
1;
#X obj 718 431 select 2;
#X msg 413 600 0;
#X msg 381 600 1;
#X msg 140 646 0;
#X msg 107 646 1;
#X msg 749 457 0;
#X msg 718 456 1;
#X obj 361 739 *~;
#X obj 361 761 outlet~;
#X obj 679 527 bng 15 250 50 0 empty empty empty 17 7 0 10 -262144
-1 -1;
#X obj 679 503 spigot;
#X obj 718 483 tgl 15 0 empty empty empty 17 7 0 10 -262144 -1 -1 0
1;
#X obj 679 620 *~;
#X obj 697 650 select 2;
#X msg 729 678 0;
#X msg 697 678 1;
#X obj 634 440 t b b;
#X obj 107 622 select 0;
#X obj 381 574 select 1;
#X obj 444 105 soundfiler;
#X obj 444 53 openpanel;
#X obj 269 105 bng 15 250 50 0 empty empty carregar 17 7 0 10 -262144
-1 -1;
#X obj 88 525 spigot;
#X obj 126 502 tgl 15 0 empty empty empty 17 7 0 10 -262144 -1 -1 0
1;
#X obj 126 458 select 0;
#X msg 126 479 1;
#X msg 159 479 0;
#X obj 365 483 tabplay~;
#X obj 88 581 tabplay~;
#X obj 679 551 tabplay~;
#X obj 500 322 loadbang;
#X floatatom 306 285 5 0 0 0 - - -, f 5;
#X msg 444 79 read -resize \$1 sample6;
#X msg 502 349 set sample6;
#X obj 269 122 bng 15 250 50 0 empty empty normalizar 17 7 0 10 -262144
-1 -1;
#X msg 426 159 \; sample6 normalize;
#X obj 21 327 select 0;
#X obj 70 358 bng 15 250 50 0 empty empty empty 17 7 0 10 -262144 -1
-1;
#X obj 383 520 adsr 1 1 0 100 100;
#X obj 697 593 adsr 1 1 0 100 100;
#X text 158 245 Gate;
#X text 158 277 Gate em Loop;
#X connect 0 0 35 0;
#X connect 0 0 40 0;
#X connect 0 0 29 0;
#X connect 1 0 9 0;
#X connect 2 0 49 0;
#X connect 2 0 51 0;
#X connect 2 0 52 0;
#X connect 3 0 2 0;
#X connect 4 0 20 1;
#X connect 4 0 44 0;
#X connect 5 0 13 0;
#X connect 5 0 26 0;
#X connect 5 0 30 0;
#X connect 5 0 31 0;
#X connect 5 0 37 0;
#X connect 7 0 20 0;
#X connect 8 0 20 0;
#X connect 9 0 20 0;
#X connect 10 0 9 1;
#X connect 11 0 8 1;
#X connect 12 0 7 1;
#X connect 13 0 19 0;
#X connect 13 1 18 0;
#X connect 14 0 10 0;
#X connect 15 0 10 0;
#X connect 16 0 12 0;
#X connect 17 0 12 0;
#X connect 18 0 24 0;
#X connect 19 0 24 0;
#X connect 20 0 21 0;
#X connect 22 0 42 0;
#X connect 23 0 22 0;
#X connect 24 0 23 1;
#X connect 25 0 8 0;
#X connect 26 0 28 0;
#X connect 26 1 27 0;
#X connect 27 0 11 0;
#X connect 28 0 11 0;
#X connect 29 0 23 0;
#X connect 29 1 19 0;
#X connect 30 0 17 0;
#X connect 30 1 16 0;
#X connect 31 0 15 0;
#X connect 31 1 14 0;
#X connect 33 0 45 0;
#X connect 34 0 33 0;
#X connect 35 0 41 0;
#X connect 36 0 35 1;
#X connect 37 0 38 0;
#X connect 37 1 39 0;
#X connect 38 0 36 0;
#X connect 39 0 36 0;
#X connect 40 0 1 0;
#X connect 41 0 7 0;
#X connect 42 0 25 0;
#X connect 42 1 23 0;
#X connect 43 0 46 0;
#X connect 45 0 32 0;
#X connect 46 0 41 0;
#X connect 46 0 40 0;
#X connect 46 0 42 0;
#X connect 47 0 48 0;
#X connect 49 0 50 0;
#X connect 49 1 0 0;
#X connect 50 0 18 0;
#X connect 51 0 1 1;
#X connect 52 0 25 1;
#X coords 0 -1 1 1 250 210 2 100 100;
#X restore 545 493 pd sampler;
#N canvas 82 187 978 538 delay 0;
#X obj -139 51 inlet~;
#X obj 23 482 outlet~;
#X obj 433 74 inlet;
#X obj -96 360 sig~;
#X obj -96 381 vd~ delay1;
#X floatatom 139 272 5 0 0 0 - - -, f 5;
#X obj -139 78 delwrite~ delay1 1000;
#X obj 218 136 vsl 30 128 0 1 0 1 empty empty feedback 0 -9 0 10 -262144
-1 -1 0 1;
#X obj -96 414 *~ 0;
#X obj 139 135 vsl 30 128 0 1000 0 1 empty empty tempo_(ms) 0 -9 0
10 -262144 -1 -1 0 1;
#X floatatom 218 272 5 0 0 0 - - -, f 5;
#X obj 387 74 inlet;
#X floatatom -96 342 5 0 0 0 - - -, f 5;
#X obj -96 321 line;
#X msg -96 299 \$1 1000;
#X obj 368 236 loadbang;
#X connect 0 0 6 0;
#X connect 2 0 7 0;
#X connect 3 0 4 0;
#X connect 4 0 8 0;
#X connect 5 0 14 0;
#X connect 7 0 10 0;
#X connect 8 0 6 0;
#X connect 8 0 1 0;
#X connect 9 0 5 0;
#X connect 10 0 8 1;
#X connect 11 0 9 0;
#X connect 12 0 3 0;
#X connect 13 0 12 0;
#X connect 14 0 13 0;
#X connect 15 0 9 0;
#X connect 15 0 7 0;
#X coords 0 -1 1 1 200 200 1 100 100;
#X restore 883 224 pd delay;
#N canvas 0 23 1085 740 outrosFX 0;
#N canvas 222 297 450 300 filtro_pb 0;
#X floatatom 172 179 7 0 0 0 - - -, f 7;
#X obj 44 200 lop~;
#X obj 106 146 hsl 190 30 0 20000 0 1 empty empty filtro_passa_baixa_(f_corte)
-2 -8 0 10 -262144 -1 -1 500 1;
#X obj 44 111 inlet~;
#X obj 44 234 outlet~;
#X obj 299 74 inlet;
#X connect 1 0 4 0;
#X connect 2 0 0 0;
#X connect 2 0 1 1;
#X connect 3 0 1 0;
#X connect 5 0 2 0;
#X coords 0 -1 1 1 200 100 1 100 100;
#X restore 57 44 pd filtro_pb;
#N canvas 222 297 450 300 filtro_pa 0;
#X floatatom 172 179 7 0 0 0 - - -, f 7;
#X obj 106 146 hsl 190 30 0 20000 0 1 empty empty filtro_passa_alta_(f_corte)
-2 -8 0 10 -262144 -1 -1 0 1;
#X obj 44 111 inlet~;
#X obj 44 234 outlet~;
#X obj 299 74 inlet;
#X obj 44 199 hip~;
#X connect 1 0 0 0;
#X connect 1 0 5 1;
#X connect 2 0 5 0;
#X connect 4 0 1 0;
#X connect 5 0 3 0;
#X coords 0 -1 1 1 200 100 1 100 100;
#X restore 58 177 pd filtro_pa;
#X obj 220 24 r filtro_pb;
#X obj 217 153 r filtro_pa;
#X obj 579 186 s filtro_pb;
#X obj 579 169 / 127;
#X obj 579 152 * 20000;
#X obj 667 169 / 127;
#X obj 667 152 * 20000;
#X obj 667 186 s filtro_pa;
#X connect 0 0 1 0;
#X connect 2 0 0 1;
#X connect 3 0 1 1;
#X connect 5 0 4 0;
#X connect 6 0 5 0;
#X connect 7 0 9 0;
#X connect 8 0 7 0;
#X restore 1058 721 pd outrosFX;
#N canvas 82 187 978 538 ganho 0;
#X obj -139 51 inlet~;
#X obj 23 482 outlet~;
#X obj 433 74 inlet;
#X obj 116 131 vsl 30 128 0 10 0 1 empty empty ganho 0 -9 0 10 -262144
-1 -1 1400 1;
#X obj -96 414 *~ 0;
#X floatatom 116 267 5 0 0 0 - - -, f 5;
#X obj 368 236 loadbang;
#X connect 0 0 4 0;
#X connect 2 0 3 0;
#X connect 3 0 5 0;
#X connect 4 0 1 0;
#X connect 5 0 4 1;
#X connect 6 0 3 0;
#X coords 0 -1 1 1 60 200 1 100 100;
#X restore 1073 451 pd ganho;
#X obj 1055 81 / 127;
#X obj 1055 60 * 10;
#X obj 1055 103 s ganho;
#X obj 1086 430 r ganho;
#N canvas 0 23 450 300 sends 0;
#X obj 62 67 r~ s1;
#X obj 112 67 r~ s2;
#X obj 158 66 r~ s3;
#X obj 204 65 r~ s4;
#X obj 248 65 r~ s5;
#X obj 291 66 r~ s6;
#X obj 164 142 outlet~;
#X connect 0 0 6 0;
#X connect 1 0 6 0;
#X connect 2 0 6 0;
#X connect 3 0 6 0;
#X connect 4 0 6 0;
#X connect 5 0 6 0;
#X restore 883 201 pd sends;
#X obj 749 59 * 1.2;
#N canvas 77 85 450 300 normalizar_todos 0;
#X msg 230 64 \; sample1 normalize;
#X msg 230 99 \; sample2 normalize;
#X msg 230 132 \; sample3 normalize;
#X msg 230 167 \; sample4 normalize;
#X msg 230 200 \; sample5 normalize;
#X msg 230 235 \; sample6 normalize;
#X obj 157 79 bng 15 250 50 0 empty empty empty 17 7 0 10 -262144 -1
-1;
#X obj 107 33 inlet;
#X connect 6 0 0 0;
#X connect 6 0 1 0;
#X connect 6 0 2 0;
#X connect 6 0 3 0;
#X connect 6 0 4 0;
#X connect 6 0 5 0;
#X connect 7 0 6 0;
#X restore 639 161 pd normalizar_todos;
#X obj 616 162 bng 15 250 50 0 empty empty empty 17 7 0 10 -262144
-1 -1;
#X text 479 412 efeito;
#X text 724 413 efeito;
#X text 213 705 efeito;
#X text 475 705 efeito;
#X text 735 704 efeito;
#X text 219 414 efeito;
#X obj 110 80 tgl 15 0 empty empty empty 17 7 0 10 -262144 -1 -1 0
127;
#X obj 131 80 tgl 15 0 empty empty empty 17 7 0 10 -262144 -1 -1 0
127;
#X obj 154 80 tgl 15 0 empty empty empty 17 7 0 10 -262144 -1 -1 0
127;
#X obj 176 80 tgl 15 0 empty empty empty 17 7 0 10 -262144 -1 -1 0
127;
#X obj 197 80 tgl 15 0 empty empty empty 17 7 0 10 -262144 -1 -1 0
127;
#X obj 218 80 tgl 15 0 empty empty empty 17 7 0 10 -262144 -1 -1 0
127;
#N canvas 201 132 450 300 s_botoes 0;
#X obj 40 186 s botao1;
#X obj 105 186 s botao2;
#X obj 169 187 s botao3;
#X obj 233 186 s botao4;
#X obj 298 186 s botao5;
#X obj 362 187 s botao6;
#X obj 164 27 inlet;
#X obj 174 37 inlet;
#X obj 184 47 inlet;
#X obj 194 57 inlet;
#X obj 204 67 inlet;
#X obj 214 77 inlet;
#X connect 6 0 0 0;
#X connect 7 0 1 0;
#X connect 8 0 2 0;
#X connect 9 0 3 0;
#X connect 10 0 4 0;
#X connect 11 0 5 0;
#X restore 134 104 pd s_botoes;
#X floatatom 507 73 5 0 0 0 - - -, f 5;
#X floatatom 553 73 5 0 0 0 - - -, f 5;
#X floatatom 600 72 5 0 0 0 - - -, f 5;
#X obj 936 81 s delFeedback;
#X obj 851 99 s delTime;
#N canvas 222 297 450 300 filtro_pb 0;
#X floatatom 172 179 7 0 0 0 - - -, f 7;
#X obj 44 200 lop~;
#X obj 106 146 hsl 190 30 0 20000 0 1 empty empty filtro_passa_baixa_(f_corte)
-2 -8 0 10 -262144 -1 -1 18900 1;
#X obj 44 111 inlet~;
#X obj 44 234 outlet~;
#X obj 299 74 inlet;
#X connect 1 0 4 0;
#X connect 2 0 0 0;
#X connect 2 0 1 1;
#X connect 3 0 1 0;
#X connect 5 0 2 0;
#X coords 0 -1 1 1 200 100 1 100 100;
#X restore 853 451 pd filtro_pb;
#X obj 984 430 r filtro_pb;
#X obj 1113 100 s filtro_pb;
#X obj 1113 79 / 127;
#X obj 1116 59 * 20000;
#N canvas 222 297 450 300 filtro_pa 0;
#X floatatom 172 179 7 0 0 0 - - -, f 7;
#X obj 106 146 hsl 190 30 0 20000 0 1 empty empty filtro_passa_alta_(f_corte)
-2 -8 0 10 -262144 -1 -1 0 1;
#X obj 44 111 inlet~;
#X obj 44 234 outlet~;
#X obj 299 74 inlet;
#X obj 44 199 hip~;
#X connect 1 0 0 0;
#X connect 1 0 5 1;
#X connect 2 0 5 0;
#X connect 4 0 1 0;
#X connect 5 0 3 0;
#X coords 0 -1 1 1 200 100 1 100 100;
#X restore 850 581 pd filtro_pa;
#X obj 980 560 r filtro_pa;
#X obj 1207 78 / 127;
#X obj 1207 58 * 20000;
#X obj 1207 99 s filtro_pa;
#N canvas 540 255 450 300 masters 0;
#X obj -3894 68 r~ m1;
#X obj -3856 68 r~ m2;
#X obj -3819 68 r~ m3;
#X obj -3781 68 r~ m4;
#X obj -3744 69 r~ m5;
#X obj -3707 70 r~ m6;
#X obj -3715 167 outlet~;
#X obj -3654 69 r~ master;
#X connect 0 0 6 0;
#X connect 1 0 6 0;
#X connect 2 0 6 0;
#X connect 3 0 6 0;
#X connect 4 0 6 0;
#X connect 5 0 6 0;
#X connect 7 0 6 0;
#X restore 1177 213 pd masters;
#X msg 110 25 40 41 42 36 37 38;
#X connect 1 0 90 0;
#X connect 1 1 91 0;
#X connect 1 2 92 0;
#X connect 1 3 93 0;
#X connect 1 4 94 0;
#X connect 1 5 95 0;
#X connect 2 0 4 0;
#X connect 3 0 2 0;
#X connect 3 0 113 0;
#X connect 4 0 97 0;
#X connect 4 1 98 0;
#X connect 4 2 99 0;
#X connect 11 0 14 0;
#X connect 12 0 16 0;
#X connect 14 0 15 0;
#X connect 15 0 101 0;
#X connect 16 0 100 0;
#X connect 18 0 17 0;
#X connect 20 0 69 0;
#X connect 21 0 68 0;
#X connect 22 0 66 0;
#X connect 23 0 70 0;
#X connect 24 0 71 0;
#X connect 25 0 72 0;
#X connect 31 0 53 0;
#X connect 32 0 31 1;
#X connect 33 0 54 0;
#X connect 34 0 33 1;
#X connect 35 0 55 0;
#X connect 36 0 35 1;
#X connect 37 0 56 0;
#X connect 38 0 37 1;
#X connect 39 0 57 0;
#X connect 40 0 39 1;
#X connect 41 0 58 0;
#X connect 42 0 41 1;
#X connect 45 0 73 1;
#X connect 46 0 73 2;
#X connect 48 0 49 0;
#X connect 48 0 49 1;
#X connect 50 0 48 1;
#X connect 51 0 52 0;
#X connect 52 0 82 0;
#X connect 66 0 61 0;
#X connect 66 0 37 0;
#X connect 68 0 39 0;
#X connect 68 0 60 0;
#X connect 69 0 41 0;
#X connect 69 0 59 0;
#X connect 70 0 62 0;
#X connect 70 0 31 0;
#X connect 71 0 33 0;
#X connect 71 0 63 0;
#X connect 72 0 35 0;
#X connect 72 0 64 0;
#X connect 73 0 102 0;
#X connect 75 0 44 0;
#X connect 76 0 78 0;
#X connect 77 0 76 0;
#X connect 79 0 75 1;
#X connect 80 0 73 0;
#X connect 81 0 18 0;
#X connect 83 0 82 0;
#X connect 90 0 96 0;
#X connect 91 0 96 1;
#X connect 92 0 96 2;
#X connect 93 0 96 3;
#X connect 94 0 96 4;
#X connect 95 0 96 5;
#X connect 97 0 7 0;
#X connect 98 0 8 0;
#X connect 99 0 9 0;
#X connect 102 0 107 0;
#X connect 103 0 102 1;
#X connect 105 0 104 0;
#X connect 106 0 105 0;
#X connect 107 0 75 0;
#X connect 108 0 107 1;
#X connect 109 0 111 0;
#X connect 110 0 109 0;
#X connect 112 0 48 0;
#X connect 113 0 1 0;
#X coords 0 0 1 1 85 60 0;
